<svg width="26" height="23" viewBox="0 0 26 23" fill="none" xmlns="http://www.w3.org/2000/svg">
<path d="M25.2123 16.2509L20.8 14.2144V22.6144H25.35C25.7091 22.6144 26 22.3011 26 21.9144V17.5376C26 17.2637 25.9254 16.9958 25.7853 16.767C25.6453 16.5383 25.4461 16.3589 25.2123 16.2509ZM0 17.5376V21.9144C0 22.3011 0.290875 22.6144 0.65 22.6144H5.2V14.2144L0.787719 16.2509C0.553925 16.3589 0.354676 16.5383 0.214658 16.767C0.0746403 16.9958 5.37877e-06 17.2637 0 17.5376ZM18.8687 11.0066L16.9 9.73437V4.70443C16.9 4.33299 16.7631 3.97731 16.5189 3.71437L13.4595 0.419556C13.2056 0.146118 12.794 0.146118 12.5405 0.419556L9.48106 3.71437C9.23731 3.97687 9.1 4.33299 9.1 4.70443V9.73437L7.13131 11.0066C6.93877 11.131 6.77943 11.3069 6.66879 11.5173C6.55815 11.7277 6.5 11.9653 6.5 12.2071V22.6144H10.4V18.4144C10.4 16.8678 11.5643 15.6144 13 15.6144C14.4357 15.6144 15.6 16.8678 15.6 18.4144V22.6144H19.5V12.2071C19.5 11.7154 19.2603 11.2595 18.8687 11.0066Z" fill="white"/>
</svg>
