<svg width="26" height="30" viewBox="0 0 26 30" fill="none" xmlns="http://www.w3.org/2000/svg">
<path d="M0 27.143C0 28.681 1.24777 29.9288 2.78571 29.9288H23.2143C24.7522 29.9288 26 28.681 26 27.143V11.3573H0V27.143ZM18.5714 15.768C18.5714 15.385 18.8848 15.0716 19.2679 15.0716H21.5893C21.9723 15.0716 22.2857 15.385 22.2857 15.768V18.0895C22.2857 18.4725 21.9723 18.7859 21.5893 18.7859H19.2679C18.8848 18.7859 18.5714 18.4725 18.5714 18.0895V15.768ZM18.5714 23.1966C18.5714 22.8136 18.8848 22.5002 19.2679 22.5002H21.5893C21.9723 22.5002 22.2857 22.8136 22.2857 23.1966V25.518C22.2857 25.9011 21.9723 26.2145 21.5893 26.2145H19.2679C18.8848 26.2145 18.5714 25.9011 18.5714 25.518V23.1966ZM11.1429 15.768C11.1429 15.385 11.4562 15.0716 11.8393 15.0716H14.1607C14.5437 15.0716 14.8571 15.385 14.8571 15.768V18.0895C14.8571 18.4725 14.5437 18.7859 14.1607 18.7859H11.8393C11.4562 18.7859 11.1429 18.4725 11.1429 18.0895V15.768ZM11.1429 23.1966C11.1429 22.8136 11.4562 22.5002 11.8393 22.5002H14.1607C14.5437 22.5002 14.8571 22.8136 14.8571 23.1966V25.518C14.8571 25.9011 14.5437 26.2145 14.1607 26.2145H11.8393C11.4562 26.2145 11.1429 25.9011 11.1429 25.518V23.1966ZM3.71429 15.768C3.71429 15.385 4.02768 15.0716 4.41071 15.0716H6.73214C7.11518 15.0716 7.42857 15.385 7.42857 15.768V18.0895C7.42857 18.4725 7.11518 18.7859 6.73214 18.7859H4.41071C4.02768 18.7859 3.71429 18.4725 3.71429 18.0895V15.768ZM3.71429 23.1966C3.71429 22.8136 4.02768 22.5002 4.41071 22.5002H6.73214C7.11518 22.5002 7.42857 22.8136 7.42857 23.1966V25.518C7.42857 25.9011 7.11518 26.2145 6.73214 26.2145H4.41071C4.02768 26.2145 3.71429 25.9011 3.71429 25.518V23.1966ZM23.2143 3.92876H20.4286V1.14305C20.4286 0.632335 20.0107 0.214478 19.5 0.214478H17.6429C17.1321 0.214478 16.7143 0.632335 16.7143 1.14305V3.92876H9.28571V1.14305C9.28571 0.632335 8.86786 0.214478 8.35714 0.214478H6.5C5.98929 0.214478 5.57143 0.632335 5.57143 1.14305V3.92876H2.78571C1.24777 3.92876 0 5.17653 0 6.71448V9.50019H26V6.71448C26 5.17653 24.7522 3.92876 23.2143 3.92876Z" fill="white"/>
</svg>
