<svg width="26" height="27" viewBox="0 0 26 27" fill="none" xmlns="http://www.w3.org/2000/svg">
<path d="M13 0.214478C5.81855 0.214478 0 6.03303 0 13.2145C0 20.3959 5.81855 26.2145 13 26.2145C20.1815 26.2145 26 20.3959 26 13.2145C26 6.03303 20.1815 0.214478 13 0.214478ZM13 5.24674C15.5476 5.24674 17.6129 7.31206 17.6129 9.85964C17.6129 12.4072 15.5476 14.4725 13 14.4725C10.4524 14.4725 8.3871 12.4072 8.3871 9.85964C8.3871 7.31206 10.4524 5.24674 13 5.24674ZM13 23.279C9.92298 23.279 7.16573 21.8846 5.32056 19.704C6.30605 17.8483 8.23508 16.5693 10.4839 16.5693C10.6097 16.5693 10.7355 16.5903 10.856 16.627C11.5375 16.8471 12.2504 16.9887 13 16.9887C13.7496 16.9887 14.4677 16.8471 15.144 16.627C15.2645 16.5903 15.3903 16.5693 15.5161 16.5693C17.7649 16.5693 19.694 17.8483 20.6794 19.704C18.8343 21.8846 16.077 23.279 13 23.279Z" fill="white"/>
</svg>
