<svg width="26" height="23" viewBox="0 0 26 23" fill="none" xmlns="http://www.w3.org/2000/svg">
<path d="M25.35 19.8146H24.3474L14.6063 5.36612L16.7761 2.14831C16.9869 1.8355 16.9227 1.39756 16.6323 1.1705L15.5801 0.348434C15.2896 0.121371 14.8834 0.190496 14.6721 0.503746L13 2.98393L11.3275 0.503309C11.1166 0.190496 10.71 0.120934 10.4195 0.347996L9.36812 1.1705C9.07766 1.39756 9.01306 1.8355 9.22431 2.14831L11.3941 5.36612L1.65262 19.8146H0.65C0.290875 19.8146 0 20.1278 0 20.5146V21.9146C0 22.3013 0.290875 22.6146 0.65 22.6146H25.35C25.7091 22.6146 26 22.3013 26 21.9146V20.5146C26 20.1278 25.7091 19.8146 25.35 19.8146ZM13 12.8146L17.7271 19.8146H8.27287L13 12.8146Z" fill="white"/>
</svg>
