<svg width="23" height="26" viewBox="0 0 23 26" fill="none" xmlns="http://www.w3.org/2000/svg">
<path d="M22.0769 8.30122H1.37378C1.05151 8.30122 0.787842 8.03755 0.787842 7.71529V5.95747C0.787842 4.66353 1.83765 3.61372 3.13159 3.61372H5.47534V1.07466C5.47534 0.752396 5.73901 0.488724 6.06128 0.488724H8.0144C8.33667 0.488724 8.60034 0.752396 8.60034 1.07466V3.61372H14.8503V1.07466C14.8503 0.752396 15.114 0.488724 15.4363 0.488724H17.3894C17.7117 0.488724 17.9753 0.752396 17.9753 1.07466V3.61372H20.3191C21.613 3.61372 22.6628 4.66353 22.6628 5.95747V7.71529C22.6628 8.03755 22.3992 8.30122 22.0769 8.30122ZM1.37378 9.86372H22.0769C22.3992 9.86372 22.6628 10.1274 22.6628 10.4497V23.145C22.6628 24.4389 21.613 25.4887 20.3191 25.4887H3.13159C1.83765 25.4887 0.787842 24.4389 0.787842 23.145V10.4497C0.787842 10.1274 1.05151 9.86372 1.37378 9.86372ZM13.9373 17.6762L16.2859 15.3276C16.5154 15.0981 16.5154 14.727 16.2859 14.4975L14.9041 13.1157C14.6746 12.8862 14.3035 12.8862 14.074 13.1157L11.7253 15.4643L9.37671 13.1157C9.14722 12.8862 8.77612 12.8862 8.54663 13.1157L7.1648 14.4975C6.9353 14.727 6.9353 15.0981 7.1648 15.3276L9.51343 17.6762L7.1648 20.0249C6.9353 20.2543 6.9353 20.6254 7.1648 20.8549L8.54663 22.2368C8.77612 22.4663 9.14722 22.4663 9.37671 22.2368L11.7253 19.8881L14.074 22.2368C14.3035 22.4663 14.6746 22.4663 14.9041 22.2368L16.2859 20.8549C16.5154 20.6254 16.5154 20.2543 16.2859 20.0249L13.9373 17.6762Z" fill="#253158"/>
</svg>
