<svg width="25" height="22" viewBox="0 0 25 22" fill="none" xmlns="http://www.w3.org/2000/svg">
<path d="M7.65137 10.9356H0.78125C0.351562 10.9356 0 11.2872 0 11.7169V13.2794C0 13.7091 0.351562 14.0606 0.78125 14.0606H7.72461C8.50098 14.0606 9.22852 14.5929 9.35547 15.3595C9.5166 16.336 8.76465 17.1856 7.8125 17.1856C7.12402 17.1856 6.53809 16.7364 6.32813 16.1163C6.22559 15.8087 5.9082 15.6231 5.58594 15.6231H3.98438C3.50586 15.6231 3.12012 16.0528 3.20801 16.5216C3.62793 18.6749 5.53223 20.3106 7.80762 20.3106C10.5957 20.3106 12.8223 17.8644 12.4561 15.0079C12.1582 12.6446 10.0293 10.9356 7.65137 10.9356ZM0.78125 9.37314H17.1875C20.1025 9.37314 22.4023 6.69736 21.7676 3.6749C21.3965 1.90732 19.9658 0.476656 18.1982 0.105562C15.4932 -0.460844 13.0664 1.32138 12.5879 3.79209C12.4951 4.26084 12.8857 4.68564 13.3594 4.68564H14.9609C15.2881 4.68564 15.6006 4.50009 15.7031 4.19248C15.9131 3.57236 16.499 3.12314 17.1875 3.12314C18.1348 3.12314 18.8916 3.97275 18.7305 4.94931C18.6035 5.71591 17.8809 6.24814 17.0996 6.24814H0.78125C0.351562 6.24814 0 6.5997 0 7.02939V8.59189C0 9.02158 0.351562 9.37314 0.78125 9.37314ZM19.5312 10.9356H11.8994C12.8418 11.7462 13.5205 12.8302 13.8428 14.0606H19.5312C20.8252 14.0606 21.875 15.1104 21.875 16.4044C21.875 17.6983 20.8252 18.7481 19.5312 18.7481C18.6572 18.7481 17.9053 18.2647 17.5 17.5567C17.3584 17.3126 17.0752 17.1856 16.792 17.1856H15.1416C14.6094 17.1856 14.2139 17.713 14.3945 18.2159C15.2637 20.6866 17.8369 22.3565 20.7129 21.7462C22.7246 21.3214 24.3799 19.7149 24.8486 17.7081C25.6836 14.1339 22.9736 10.9356 19.5312 10.9356Z" fill="#253158"/>
</svg>
